<?xml version="1.0" encoding="utf-8"?>
<!-- Generator: Adobe Illustrator 28.0.0, SVG Export Plug-In . SVG Version: 6.00 Build 0)  -->
<svg version="1.1" xmlns="http://www.w3.org/2000/svg" xmlns:xlink="http://www.w3.org/1999/xlink" x="0px" y="0px"
	 viewBox="0 0 512 512" enable-background="new 0 0 512 512" xml:space="preserve">
<g id="Слой_2">
	<circle fill="#F2F2F2" cx="256" cy="256" r="256"/>
</g>
<g id="Слой_1">
	<g>
		<g id="_Слой_1">
			<g>
				<path fill="#0CB4CC" d="M90.04,304.04c130.27-62.41,232.82-135.91,267.47-205.94C351.97,90.47,342.96,87,333.26,87H179.43
					c-12.47,0-23.56,6.93-29.8,17.34L72.72,238.86c-6.24,10.4-6.24,23.58,0,34.67l18.02,31.2L90.04,304.04z"/>
				<path fill="#0CB4CC" d="M376.92,128.6c-50.58,152.55-166.3,252.4-218.96,287.77c6.24,4.85,13.86,7.63,21.48,7.63h153.14
					c12.47,0,23.56-6.93,29.8-17.34l76.91-133.83c6.24-10.4,6.24-23.58,0-34.67"/>
			</g>
		</g>
	</g>
</g>
</svg>
